<?xml version="1.0" standalone="no"?>
<!DOCTYPE svg PUBLIC "-//W3C//DTD SVG 20010904//EN"
 "http://www.w3.org/TR/2001/REC-SVG-20010904/DTD/svg10.dtd">
<svg version="1.0" xmlns="http://www.w3.org/2000/svg"
 width="1280.000000pt" height="1072.000000pt" viewBox="0 0 1280.000000 1072.000000"
 preserveAspectRatio="xMidYMid meet">
<metadata>
Created by potrace 1.15, written by Peter Selinger 2001-2017
</metadata>
<g transform="translate(0.000000,1072.000000) scale(0.100000,-0.100000)"
fill="#000000" stroke="none">
<path d="M3713 10713 c-7 -2 -13 -13 -13 -23 0 -16 -5 -16 -47 -8 -45 9 -216
3 -255 -8 -15 -5 -13 -9 12 -31 37 -31 38 -41 3 -45 -20 -2 -29 -9 -31 -24 -3
-19 3 -22 48 -26 28 -3 52 -7 53 -9 2 -2 122 -269 266 -594 145 -324 295 -661
334 -747 67 -150 71 -157 101 -161 18 -2 8 -4 -25 -5 -31 -1 -58 -4 -61 -7 -3
-3 55 -144 129 -313 353 -806 606 -1378 616 -1389 5 -7 25 -13 43 -13 27 0 35
-5 38 -22 6 -29 56 -375 56 -388 0 -6 -12 -10 -26 -10 -32 0 -33 36 20 -385
44 -342 60 -509 53 -529 -6 -14 -74 -15 -654 -10 -688 7 -935 0 -1331 -37
-255 -23 -519 -60 -687 -95 -136 -28 -193 -32 -225 -12 -27 16 -157 188 -620
818 -406 552 -431 585 -470 605 -20 10 -84 15 -258 17 -128 2 -232 0 -232 -4
0 -3 27 -118 59 -255 33 -136 101 -421 151 -633 50 -212 107 -450 126 -529 18
-79 34 -147 34 -151 0 -4 -37 -12 -81 -18 -93 -13 -109 -23 -109 -63 0 -32 12
-29 -196 -53 -151 -18 -157 -20 -173 -49 -10 -19 -36 -29 -149 -55 -164 -40
-221 -62 -201 -79 16 -13 153 -55 254 -78 52 -12 77 -23 96 -44 28 -31 61 -39
263 -64 l99 -12 4 -30 c5 -40 24 -53 92 -60 91 -10 103 -14 97 -33 -13 -42
-386 -1543 -386 -1552 0 -16 443 -13 483 4 41 17 68 51 497 621 454 603 574
759 607 784 33 27 78 27 196 0 530 -119 1353 -180 2218 -166 180 3 363 3 408
0 l81 -6 0 -44 c0 -47 -44 -405 -85 -681 -14 -96 -25 -178 -25 -183 0 -5 11
-9 25 -9 31 0 31 8 -5 -225 -16 -104 -30 -193 -30 -197 0 -4 -12 -5 -27 -2
-16 3 -35 0 -45 -8 -9 -7 -88 -168 -174 -358 -147 -322 -589 -1300 -601 -1327
-4 -10 13 -13 63 -15 38 -1 53 -3 33 -5 l-36 -4 -345 -747 -344 -747 -52 -3
c-47 -3 -52 -5 -52 -27 0 -18 7 -25 30 -30 35 -8 30 -25 -15 -55 l-28 -18 69
-8 c90 -10 202 -11 237 -1 23 6 27 4 27 -12 0 -19 18 -31 49 -31 10 0 71 32
135 70 64 39 127 70 141 70 15 0 36 11 48 24 13 13 36 26 52 28 24 2 51 28
143 138 235 279 569 690 937 1154 511 645 1480 1856 1535 1919 8 9 190 -10
206 -22 5 -3 17 -18 26 -33 22 -33 64 -43 263 -59 155 -12 470 -7 555 10 50
10 75 35 90 89 13 48 13 396 -1 445 -19 71 -25 72 -364 72 -165 0 -315 -3
-332 -7 -21 -5 -33 -4 -33 3 0 6 47 63 103 127 57 64 148 173 201 240 123 156
227 265 271 286 44 21 44 33 0 42 -40 7 -92 1 -152 -17 -63 -19 -74 -2 -30 45
29 31 41 36 77 36 24 0 77 12 118 26 l74 25 372 -10 c1062 -31 2485 -36 2886
-11 592 38 1285 199 1570 365 107 63 153 105 191 178 31 60 32 67 21 105 -54
181 -318 322 -857 456 -426 107 -706 145 -1201 166 -276 12 -1735 18 -2524 11
-438 -4 -478 -3 -515 13 -22 10 -69 22 -105 26 -57 8 -69 13 -99 46 -30 33
-32 38 -17 46 13 7 35 3 77 -12 88 -33 202 -13 132 24 -43 22 -177 166 -290
313 -57 72 -145 180 -198 240 -52 59 -95 112 -95 117 0 4 10 6 23 3 108 -27
596 -32 661 -7 14 5 33 21 43 37 16 24 18 52 18 253 0 316 12 302 -271 321
-161 11 -359 6 -513 -12 -96 -11 -112 -18 -130 -53 -11 -20 -25 -27 -81 -36
-37 -6 -85 -10 -108 -8 l-41 3 -272 345 c-316 401 -723 923 -1293 1658 -435
560 -506 650 -800 1010 -161 197 -194 232 -216 232 -15 0 -35 9 -45 20 -10 11
-34 23 -54 26 -20 4 -61 24 -91 44 -127 85 -180 108 -217 93z m452 -313 c16
-22 26 -42 23 -45 -4 -5 -78 90 -78 101 0 12 27 -16 55 -56z m128 -167 c26
-34 47 -67 47 -74 0 -6 -31 29 -70 79 -38 50 -70 96 -70 102 0 12 20 -10 93
-107z m140 -185 c36 -47 63 -89 60 -92 -7 -7 -143 172 -143 188 0 13 1 11 83
-96z m172 -227 c47 -62 83 -116 80 -119 -3 -3 -7 -3 -8 -1 -33 39 -177 238
-177 244 0 13 10 1 105 -124z m185 -243 c44 -60 77 -108 72 -108 -5 0 -43 44
-84 98 -85 111 -95 126 -80 121 6 -2 47 -52 92 -111z m175 -233 c38 -49 73
-96 78 -102 6 -8 6 -13 0 -13 -11 0 -173 212 -173 225 0 13 16 -6 95 -110z
m179 -237 c47 -62 89 -117 93 -123 5 -5 44 -57 87 -115 44 -58 84 -111 90
-119 8 -11 8 -13 -1 -10 -11 4 -363 462 -363 473 0 15 15 -2 94 -106z m369
-484 c67 -90 111 -161 80 -129 -19 19 -173 223 -173 229 0 19 23 -6 93 -100z
m272 -373 c-4 -3 -9 -1 -13 5 -4 5 -42 56 -84 112 -43 55 -78 106 -78 113 0 6
41 -41 90 -106 50 -65 88 -121 85 -124z m98 -117 c43 -58 76 -108 74 -111 -3
-2 -38 40 -79 94 -85 112 -92 123 -81 123 4 -1 43 -48 86 -106z m153 -201 c31
-43 69 -93 83 -112 14 -19 21 -32 14 -30 -13 4 -163 199 -163 211 0 16 9 7 66
-69z m219 -290 c52 -69 93 -128 90 -131 -3 -3 -7 -3 -9 -1 -30 36 -196 259
-196 264 0 15 24 -13 115 -132z m126 -165 c22 -28 25 -45 3 -28 -17 15 -38 50
-28 50 3 0 14 -10 25 -22z m107 -143 c63 -81 106 -152 75 -120 -8 8 -93 119
-156 203 -6 7 -6 12 0 12 5 0 41 -43 81 -95z m62 -3863 c0 -5 -30 -47 -66 -93
-36 -46 -72 -93 -80 -103 -7 -11 -16 -17 -19 -14 -4 4 154 218 162 218 2 0 3
-4 3 -8z m-190 -252 c-12 -16 -26 -30 -31 -30 -5 0 0 14 13 30 12 17 26 30 31
30 4 0 -1 -13 -13 -30z m-47 -62 c-6 -7 -49 -64 -97 -125 -48 -62 -92 -113
-97 -113 -4 0 37 59 92 130 56 72 104 129 107 126 3 -3 0 -11 -5 -18z m-210
-270 c-6 -7 -45 -57 -87 -111 -42 -55 -76 -94 -76 -87 0 15 161 222 168 215 3
-2 0 -10 -5 -17z m-180 -230 c-25 -43 -158 -206 -161 -199 -4 11 159 223 166
217 2 -3 0 -11 -5 -18z m-177 -224 c-9 -24 -168 -225 -174 -219 -3 2 19 35 48
72 29 38 69 89 88 116 38 49 48 58 38 31z m-263 -346 c-48 -62 -88 -115 -90
-117 -2 -2 -6 -2 -9 1 -7 7 164 228 177 228 5 0 -30 -51 -78 -112z m-130 -166
c-84 -113 -148 -192 -156 -192 -9 0 9 25 108 153 59 77 102 111 48 39z m-163
-207 c0 -4 -159 -212 -185 -242 -5 -6 -46 -59 -90 -117 -44 -58 -84 -106 -89
-106 -12 0 -4 10 184 254 146 190 180 230 180 211z m-376 -487 c-21 -35 -157
-204 -167 -207 -6 -2 2 14 19 36 85 115 140 182 147 183 5 0 5 -6 1 -12z
m-174 -223 c0 -7 -171 -224 -182 -231 -20 -13 -2 14 82 124 74 97 100 125 100
107z m-200 -253 c0 -13 -129 -176 -143 -181 -9 -3 -9 -1 -1 10 6 8 39 51 74
97 63 82 70 89 70 74z m-150 -197 c0 -11 -142 -186 -147 -181 -6 5 129 185
140 185 4 1 7 -1 7 -4z m-191 -249 c-18 -25 -37 -46 -42 -46 -8 0 8 25 56 88
5 7 12 10 14 8 3 -3 -10 -25 -28 -50z"/>
</g>
</svg>
